<?xml version="1.0" encoding="UTF-8"?><svg id="Capa_2" xmlns="http://www.w3.org/2000/svg" viewBox="0 0 188.64 196.27"><defs><style>.cls-1{fill:#fff;stroke-width:0px;}</style></defs><g id="Capa_1-2"><path class="cls-1" d="m175.57,0c2.14.94,4.49,1.57,6.39,2.87,7.57,5.19,8.89,15.4,3.04,22.73-4.5,5.64-9.11,11.19-13.67,16.78-3.43,4.2-6.91,8.38-10.26,12.64-.56.71-.82,1.84-.82,2.78-.04,32.64-.03,65.28-.04,97.92,0,7.49-4.45,13.48-11.44,15.33-1.64.43-3.4.6-5.1.6-13.35.05-26.7.03-40.05.03h-2.26v13.08c3.15,0,6.38-.05,9.61.01,4.47.08,7.1,4.85,4.81,8.69-1.06,1.77-2.65,2.78-4.72,2.78-20.63.02-41.26.03-61.9,0-3.17,0-5.69-2.7-5.64-5.81.05-3.07,2.52-5.6,5.61-5.65,3.19-.05,6.38-.01,9.71-.01v-13.08c-.77,0-1.51,0-2.25,0-13.61,0-27.21.02-40.82-.01-7.86-.02-13.98-5.03-15.54-12.67-.2-.99-.22-2.03-.22-3.04C0,125.31,0,94.65,0,63.99c0-8.89,6.72-15.65,15.61-15.65,30.09-.02,60.17-.02,90.26.03,1.72,0,2.99-.5,4.29-1.56,17.18-14.09,34.42-28.12,51.58-42.22C164.3,2.48,167.09.98,170.2,0,171.99,0,173.78,0,175.57,0Zm-60.09,95.72c0,.89-.02,1.59,0,2.28.35,10.98-6.43,20.86-16.54,24.12-4.39,1.42-8.9,1.38-13.45,1.37-6.06-.02-11.95.68-17.04,4.54-2.13,1.62-5.34,1.09-7.19-.81-1.96-2.01-2.21-5.18-.41-7.53,1.95-2.56,3.22-5.43,3.52-8.56.46-4.75.61-9.54.78-14.31.4-10.93,7.47-20.06,18.03-22.77,3.1-.79,6.39-.86,9.2-1.22,1.04-4.21,2.11-8.55,3.18-12.9-.03,0-.4-.04-.77-.04-26.13,0-52.26,0-78.39,0-3.58,0-4.93,1.42-4.93,5.06,0,24.28,0,48.55,0,72.83,0,.67.06,1.34.08,1.97h136.88v-69.34c-4.08,4.99-8.02,9.51-11.62,14.29-5.35,7.1-12.19,11.08-21.36,11.02Zm32.88,55.82H11.5c0,1.6-.05,3.06.01,4.52.11,2.37,1.47,3.76,3.82,3.95.76.06,1.53.04,2.3.04,41.19,0,82.39-.05,123.58.05,7.24.02,7.71-1.27,7.33-8.31,0-.05-.07-.1-.19-.25Zm-20.53-104.24c4.57,4.58,8.98,9,13.45,13.48.14-.16.4-.43.63-.71,7.27-8.89,14.54-17.79,21.8-26.68,4.08-4.99,8.18-9.96,12.2-15,2.16-2.71.94-6.39-2.31-6.68-1.31-.11-2.96.7-4.06,1.58-7.78,6.21-15.45,12.55-23.16,18.85-6.22,5.08-12.43,10.17-18.54,15.17Zm-51.59,64.94c4.67-.1,9.43-.16,14.18-.32,9.41-.32,15.3-7.96,13.07-16.89-1.61-6.45-7.62-10.68-14.67-10.33-6.19.31-11.07,4.68-11.78,11.2-.6,5.47-.56,11.02-.8,16.34Zm57.41-41.86c-5.21-5.21-10.21-10.2-15.37-15.37-3.47,2.92-7.31,5.71-10.61,9.04-4.41,4.45-4.1,11.72.23,16.28,4.29,4.51,11.74,5.22,16.24.97,3.54-3.34,6.44-7.35,9.51-10.93Zm-63.06,114.23h18.97v-12.8h-18.97v12.8Z"/></g></svg>